<svg version="1.1" xmlns="http://www.w3.org/2000/svg" width="24" height="24" viewBox="0 0 24 24">
<title>email</title>
<path d="M3 7.921l8.427 5.899c0.34 0.235 0.795 0.246 1.147 0l8.426-5.899v10.079c0 0.134-0.027 0.261-0.075 0.377-0.051 0.122-0.126 0.234-0.22 0.328s-0.206 0.169-0.328 0.22c-0.116 0.048-0.243 0.075-0.377 0.075h-16c-0.134 0-0.261-0.027-0.377-0.075-0.122-0.051-0.234-0.126-0.328-0.22s-0.169-0.206-0.22-0.328c-0.048-0.116-0.075-0.243-0.075-0.377zM1 6.012v11.988c0 0.403 0.081 0.79 0.227 1.143 0.153 0.369 0.377 0.7 0.653 0.977s0.608 0.501 0.977 0.653c0.353 0.146 0.74 0.227 1.143 0.227h16c0.403 0 0.79-0.081 1.143-0.227 0.369-0.153 0.7-0.377 0.977-0.653s0.501-0.608 0.653-0.977c0.146-0.353 0.227-0.74 0.227-1.143v-12c0-0.006 0-0.012 0-0.017-0.002-0.397-0.083-0.777-0.227-1.125-0.153-0.369-0.377-0.7-0.653-0.977s-0.608-0.501-0.977-0.653c-0.353-0.147-0.74-0.228-1.143-0.228h-16c-0.403 0-0.79 0.081-1.143 0.227-0.369 0.153-0.7 0.377-0.977 0.653s-0.5 0.608-0.653 0.977c-0.144 0.348-0.225 0.729-0.227 1.126 0 0.005 0 0.011 0 0.017zM20.894 5.554l-8.894 6.225-8.894-6.225c0.048-0.095 0.112-0.183 0.188-0.259 0.095-0.095 0.206-0.17 0.329-0.22 0.116-0.048 0.243-0.075 0.377-0.075h16c0.134 0 0.261 0.027 0.377 0.075 0.122 0.051 0.234 0.126 0.328 0.22 0.076 0.076 0.14 0.164 0.188 0.259z"></path>
</svg>
